<svg version="1.1" xmlns="http://www.w3.org/2000/svg" viewBox="0 0 493.39996337890625 464.0000000000001" width="493.39996337890625" height="464.0000000000001">
  <!-- svg-source:excalidraw -->
  
  <defs>
    <style>
      @font-face {
        font-family: "Virgil";
        src: url("https://excalidraw.com/Virgil.woff2");
      }
      @font-face {
        font-family: "Cascadia";
        src: url("https://excalidraw.com/Cascadia.woff2");
      }
    </style>
  </defs>
  <g stroke-opacity="0.4" fill-opacity="0.4" stroke-linecap="round" transform="translate(10 10) rotate(0 236.69998168945312 222.00000000000006)"><path d="M54.39 80.41 C54.39 80.41, 54.39 80.41, 54.39 80.41 M54.39 80.41 C54.39 80.41, 54.39 80.41, 54.39 80.41 M29.2 115.48 C46.41 95.69, 63.61 75.9, 76.44 61.15 M29.2 115.48 C42.67 99.99, 56.13 84.5, 76.44 61.15 M23.69 127.92 C45.63 102.68, 67.57 77.44, 97.83 42.64 M23.69 127.92 C44.48 104, 65.27 80.08, 97.83 42.64 M17.52 141.11 C43.82 110.87, 70.11 80.62, 110.03 34.7 M17.52 141.11 C46.08 108.26, 74.64 75.41, 110.03 34.7 M12.01 153.55 C52.47 107, 92.93 60.46, 120.26 29.02 M12.01 153.55 C51.23 108.43, 90.45 63.31, 120.26 29.02 M9.13 162.96 C34.24 134.08, 59.35 105.19, 125.25 29.38 M9.13 162.96 C51.42 114.32, 93.7 65.67, 125.25 29.38 M9.52 168.61 C59.84 110.72, 110.16 52.83, 136.8 22.19 M9.52 168.61 C40.41 133.07, 71.3 97.54, 136.8 22.19 M4.67 180.29 C54.08 123.45, 103.48 66.62, 145.07 18.78 M4.67 180.29 C33.69 146.9, 62.71 113.51, 145.07 18.78 M3.1 188.19 C48.86 135.55, 94.61 82.91, 151.37 17.63 M3.1 188.19 C35.81 150.57, 68.52 112.94, 151.37 17.63 M2.83 194.59 C64.56 123.58, 126.29 52.57, 158.98 14.97 M2.83 194.59 C46.42 144.45, 90.01 94.31, 158.98 14.97 M1.92 201.74 C63.24 131.2, 124.56 60.66, 165.93 13.07 M1.92 201.74 C48.27 148.42, 94.62 95.1, 165.93 13.07 M1 208.9 C63.42 137.09, 125.84 65.28, 172.89 11.16 M1 208.9 C54.58 147.25, 108.17 85.61, 172.89 11.16 M0.74 215.29 C65.93 140.29, 131.13 65.29, 179.84 9.26 M0.74 215.29 C54.96 152.92, 109.18 90.55, 179.84 9.26 M-0.18 222.45 C71.7 139.76, 143.58 57.07, 186.8 7.35 M-0.18 222.45 C60.07 153.13, 120.33 83.82, 186.8 7.35 M0.22 228.09 C70.73 146.97, 141.24 65.85, 193.75 5.45 M0.22 228.09 C47.14 174.11, 94.07 120.13, 193.75 5.45 M0.61 233.73 C60.6 164.73, 120.58 95.72, 200.05 4.3 M0.61 233.73 C43.68 184.18, 86.76 134.63, 200.05 4.3 M2.32 237.87 C78.86 149.82, 155.4 61.77, 207.66 1.64 M2.32 237.87 C74.36 154.99, 146.41 72.11, 207.66 1.64 M2.71 243.51 C58.79 179, 114.87 114.48, 213.31 1.25 M2.71 243.51 C83.93 150.08, 165.15 56.65, 213.31 1.25 M2.45 249.91 C67.3 175.31, 132.15 100.7, 218.95 0.85 M2.45 249.91 C81.34 159.15, 160.24 68.39, 218.95 0.85 M2.84 255.55 C79.47 167.41, 156.09 79.26, 223.28 1.97 M2.84 255.55 C71.53 176.54, 140.22 97.52, 223.28 1.97 M3.9 260.44 C86.62 165.28, 169.34 70.12, 228.92 1.57 M3.9 260.44 C73.02 180.93, 142.14 101.41, 228.92 1.57 M5.6 264.57 C79.73 179.29, 153.86 94.02, 234.57 1.18 M5.6 264.57 C88.38 169.34, 171.16 74.12, 234.57 1.18 M6.65 269.46 C79.18 186.03, 151.71 102.59, 238.9 2.29 M6.65 269.46 C74.15 191.81, 141.65 114.16, 238.9 2.29 M7.7 274.35 C75.54 196.31, 143.37 118.28, 244.54 1.9 M7.7 274.35 C100.26 167.88, 192.81 61.41, 244.54 1.9 M9.41 278.48 C101 173.12, 192.59 67.76, 249.53 2.26 M9.41 278.48 C84.77 191.79, 160.13 105.1, 249.53 2.26 M10.46 283.37 C68.95 216.09, 127.43 148.81, 254.51 2.62 M10.46 283.37 C93.95 187.32, 177.45 91.27, 254.51 2.62 M12.17 287.5 C95.12 192.08, 178.08 96.65, 259.5 2.98 M12.17 287.5 C77.3 212.58, 142.43 137.65, 259.5 2.98 M13.22 292.39 C88.61 205.66, 164.01 118.93, 264.49 3.34 M13.22 292.39 C74.97 221.35, 136.73 150.31, 264.49 3.34 M14.92 296.53 C77.64 224.38, 140.36 152.22, 268.82 4.45 M14.92 296.53 C94.42 205.08, 173.92 113.63, 268.82 4.45 M16.63 300.66 C92.95 212.87, 169.27 125.07, 273.81 4.81 M16.63 300.66 C73.09 235.71, 129.55 170.76, 273.81 4.81 M18.34 304.79 C96.91 214.4, 175.49 124.01, 278.79 5.17 M18.34 304.79 C102.91 207.51, 187.48 110.22, 278.79 5.17 M20.04 308.93 C117.73 196.55, 215.42 84.17, 283.12 6.29 M20.04 308.93 C90.73 227.61, 161.42 146.29, 283.12 6.29 M21.75 313.06 C127.55 191.35, 233.35 69.64, 288.11 6.65 M21.75 313.06 C87.57 237.34, 153.4 161.62, 288.11 6.65 M23.46 317.19 C125.11 200.26, 226.75 83.33, 292.44 7.76 M23.46 317.19 C100.39 228.69, 177.33 140.19, 292.44 7.76 M25.17 321.33 C118.81 213.6, 212.46 105.87, 297.43 8.12 M25.17 321.33 C111.45 222.07, 197.73 122.82, 297.43 8.12 M27.53 324.71 C105.15 235.42, 182.77 146.13, 301.76 9.24 M27.53 324.71 C96.57 245.28, 165.62 165.86, 301.76 9.24 M29.23 328.84 C102.54 244.51, 175.85 160.18, 306.09 10.35 M29.23 328.84 C100.68 246.65, 172.13 164.46, 306.09 10.35 M32.25 331.47 C134.03 214.39, 235.81 97.3, 310.42 11.47 M32.25 331.47 C97.27 256.67, 162.29 181.88, 310.42 11.47 M34.62 334.84 C145.28 207.54, 255.95 80.23, 314.75 12.58 M34.62 334.84 C113.66 243.92, 192.7 152.99, 314.75 12.58 M36.98 338.22 C98.34 267.64, 159.7 197.05, 318.43 14.45 M36.98 338.22 C145.95 212.87, 254.92 87.51, 318.43 14.45 M38.69 342.36 C118.96 250.02, 199.23 157.68, 322.76 15.57 M38.69 342.36 C120.54 248.19, 202.4 154.03, 322.76 15.57 M41.05 345.74 C139.09 232.96, 237.12 120.18, 326.43 17.44 M41.05 345.74 C142.32 229.23, 243.6 112.73, 326.43 17.44 M43.41 349.11 C154.57 221.24, 265.73 93.36, 330.11 19.31 M43.41 349.11 C118.7 262.5, 193.99 175.89, 330.11 19.31 M45.77 352.49 C149.18 233.54, 252.59 114.58, 333.78 21.18 M45.77 352.49 C122.7 264, 199.63 175.5, 333.78 21.18 M48.14 355.87 C130.31 261.35, 212.48 166.82, 338.11 22.29 M48.14 355.87 C129.2 262.62, 210.26 169.37, 338.11 22.29 M50.5 359.25 C165.42 227.05, 280.35 94.84, 342.45 23.41 M50.5 359.25 C150.24 244.52, 249.97 129.78, 342.45 23.41 M53.52 361.88 C128.09 276.09, 202.66 190.31, 346.12 25.28 M53.52 361.88 C141.44 260.73, 229.36 159.59, 346.12 25.28 M55.88 365.25 C140.81 267.56, 225.74 169.86, 349.8 27.15 M55.88 365.25 C139.27 269.32, 222.67 173.39, 349.8 27.15 M58.9 367.88 C147.08 266.44, 235.25 165.01, 352.81 29.77 M58.9 367.88 C168.96 241.28, 279.01 114.67, 352.81 29.77 M61.26 371.26 C179.08 235.73, 296.89 100.2, 356.49 31.64 M61.26 371.26 C145.75 274.07, 230.24 176.87, 356.49 31.64 M64.28 373.88 C161.69 261.83, 259.09 149.78, 360.16 33.51 M64.28 373.88 C134.69 292.89, 205.1 211.89, 360.16 33.51 M67.3 376.51 C183.12 243.28, 298.93 110.04, 363.84 35.38 M67.3 376.51 C135.28 298.3, 203.27 220.1, 363.84 35.38 M70.32 379.13 C178.88 254.25, 287.44 129.36, 367.51 37.25 M70.32 379.13 C163.95 271.42, 257.57 163.72, 367.51 37.25 M72.68 382.51 C145.09 299.22, 217.5 215.92, 371.19 39.12 M72.68 382.51 C156.48 286.11, 240.28 189.71, 371.19 39.12 M75.7 385.13 C178.27 267.14, 280.84 149.15, 374.21 41.74 M75.7 385.13 C170.39 276.21, 265.08 167.28, 374.21 41.74 M78.72 387.76 C152.51 302.87, 226.31 217.98, 377.88 43.61 M78.72 387.76 C167.23 285.94, 255.74 184.12, 377.88 43.61 M82.39 389.63 C175.54 282.48, 268.68 175.34, 380.9 46.23 M82.39 389.63 C155.08 306.01, 227.77 222.39, 380.9 46.23 M85.41 392.25 C147.2 321.18, 208.98 250.1, 383.92 48.86 M85.41 392.25 C150.32 317.58, 215.23 242.92, 383.92 48.86 M88.43 394.88 C157.5 315.42, 226.57 235.96, 387.6 50.73 M88.43 394.88 C202.25 263.95, 316.06 133.02, 387.6 50.73 M91.45 397.5 C163.28 314.87, 235.11 232.24, 390.61 53.35 M91.45 397.5 C173.94 302.61, 256.43 207.71, 390.61 53.35 M94.47 400.12 C206.07 271.75, 317.66 143.37, 393.63 55.98 M94.47 400.12 C184.83 296.18, 275.19 192.23, 393.63 55.98 M98.14 401.99 C210.12 273.18, 322.1 144.37, 396.65 58.6 M98.14 401.99 C214.12 268.58, 330.1 135.16, 396.65 58.6 M101.82 403.86 C198.27 292.91, 294.72 181.95, 399.67 61.23 M101.82 403.86 C182.19 311.41, 262.56 218.96, 399.67 61.23 M104.84 406.49 C210.17 285.31, 315.51 164.14, 402.69 63.85 M104.84 406.49 C212.38 282.77, 319.93 159.06, 402.69 63.85 M108.51 408.36 C221.78 278.06, 335.05 147.76, 405.71 66.47 M108.51 408.36 C177.71 328.76, 246.9 249.16, 405.71 66.47 M111.53 410.98 C179.83 332.42, 248.12 253.86, 408.73 69.1 M111.53 410.98 C196.58 313.15, 281.62 215.32, 408.73 69.1 M115.21 412.85 C220.56 291.66, 325.91 170.47, 411.75 71.72 M115.21 412.85 C182.69 335.22, 250.17 257.59, 411.75 71.72 M118.88 414.72 C228.16 289.01, 337.44 163.3, 414.11 75.1 M118.88 414.72 C220.45 297.88, 322.03 181.03, 414.11 75.1 M122.56 416.59 C231.28 291.51, 340.01 166.44, 417.13 77.73 M122.56 416.59 C233.92 288.48, 345.29 160.37, 417.13 77.73 M125.58 419.21 C200.18 333.4, 274.78 247.58, 419.49 81.1 M125.58 419.21 C185.1 350.74, 244.62 282.27, 419.49 81.1 M129.25 421.08 C204.91 334.05, 280.57 247.01, 422.51 83.73 M129.25 421.08 C216.01 321.28, 302.76 221.48, 422.51 83.73 M132.93 422.95 C212.45 331.47, 291.98 239.98, 424.87 87.11 M132.93 422.95 C196.24 350.12, 259.54 277.3, 424.87 87.11 M137.26 424.07 C244.49 300.71, 351.72 177.35, 427.23 90.49 M137.26 424.07 C218.43 330.69, 299.59 237.32, 427.23 90.49 M140.93 425.94 C236.41 316.1, 331.88 206.27, 430.25 93.11 M140.93 425.94 C207.42 349.45, 273.91 272.96, 430.25 93.11 M145.26 427.05 C250.1 306.45, 354.94 185.84, 432.62 96.49 M145.26 427.05 C236.3 322.32, 327.34 217.59, 432.62 96.49 M148.94 428.92 C218.51 348.89, 288.08 268.86, 434.98 99.87 M148.94 428.92 C255.25 306.62, 361.57 184.32, 434.98 99.87 M152.61 430.79 C214.12 360.04, 275.62 289.29, 437.34 103.25 M152.61 430.79 C232.5 338.89, 312.4 246.98, 437.34 103.25 M156.29 432.66 C252.75 321.69, 349.22 210.72, 439.05 107.38 M156.29 432.66 C229.87 348.02, 303.45 263.37, 439.05 107.38 M160.62 433.78 C219.2 366.39, 277.78 299, 441.41 110.76 M160.62 433.78 C254.05 326.3, 347.47 218.82, 441.41 110.76 M164.95 434.89 C238.95 349.76, 312.96 264.63, 443.77 114.14 M164.95 434.89 C220.91 370.51, 276.88 306.13, 443.77 114.14 M169.28 436.01 C263.79 327.29, 358.3 218.57, 446.79 116.76 M169.28 436.01 C258.71 333.13, 348.14 230.25, 446.79 116.76 M173.61 437.12 C275.35 320.09, 377.08 203.05, 448.5 120.9 M173.61 437.12 C279.7 315.08, 385.79 193.04, 448.5 120.9 M178.6 437.48 C266.31 336.58, 354.01 235.69, 450.86 124.28 M178.6 437.48 C283.62 316.67, 388.64 195.86, 450.86 124.28 M182.93 438.6 C269.7 338.78, 356.47 238.96, 452.57 128.41 M182.93 438.6 C262.78 346.74, 342.63 254.88, 452.57 128.41 M187.26 439.71 C287.72 324.14, 388.19 208.57, 454.28 132.54 M187.26 439.71 C279.95 333.08, 372.64 226.46, 454.28 132.54 M192.25 440.07 C271.27 349.16, 350.3 258.25, 455.98 136.68 M192.25 440.07 C271.14 349.32, 350.03 258.57, 455.98 136.68 M195.27 442.69 C257.78 370.78, 320.29 298.87, 457.69 140.81 M195.27 442.69 C278.72 346.69, 362.17 250.69, 457.69 140.81 M200.25 443.05 C302.67 325.24, 405.08 207.43, 459.4 144.94 M200.25 443.05 C265.08 368.48, 329.9 293.91, 459.4 144.94 M204.58 444.17 C295.88 339.15, 387.17 234.13, 461.1 149.08 M204.58 444.17 C280.87 356.42, 357.15 268.66, 461.1 149.08 M209.57 444.53 C263.27 382.76, 316.96 320.99, 462.15 153.97 M209.57 444.53 C283.32 359.69, 357.08 274.85, 462.15 153.97 M214.56 444.89 C286.77 361.82, 358.97 278.76, 463.86 158.1 M214.56 444.89 C307.24 338.27, 399.92 231.65, 463.86 158.1 M219.54 445.25 C285.4 369.49, 351.26 293.72, 464.91 162.99 M219.54 445.25 C282.1 373.29, 344.65 301.34, 464.91 162.99 M224.53 445.61 C300.14 358.64, 375.74 271.66, 466.62 167.12 M224.53 445.61 C300.83 357.83, 377.14 270.06, 466.62 167.12 M229.52 445.97 C322.82 338.64, 416.12 231.31, 467.67 172.01 M229.52 445.97 C290.66 375.64, 351.8 305.31, 467.67 172.01 M234.51 446.33 C283.51 389.95, 332.52 333.57, 468.72 176.9 M234.51 446.33 C325.66 341.47, 416.81 236.62, 468.72 176.9 M239.49 446.69 C314.37 360.55, 389.25 274.41, 470.43 181.03 M239.49 446.69 C309.39 366.29, 379.28 285.88, 470.43 181.03 M245.14 446.3 C307.95 374.04, 370.76 301.79, 470.82 186.68 M245.14 446.3 C322.49 357.31, 399.84 268.32, 470.82 186.68 M252.09 444.39 C322.42 363.49, 392.74 282.59, 471.87 191.56 M252.09 444.39 C314.84 372.21, 377.59 300.02, 471.87 191.56 M257.73 444 C328.93 362.1, 400.12 280.2, 473.58 195.7 M257.73 444 C303.59 391.25, 349.44 338.5, 473.58 195.7 M264.03 442.85 C336.57 359.4, 409.12 275.95, 473.97 201.34 M264.03 442.85 C344.97 349.74, 425.91 256.63, 473.97 201.34 M268.36 443.96 C327.05 376.45, 385.74 308.94, 473.05 208.49 M268.36 443.96 C334.33 368.08, 400.29 292.2, 473.05 208.49 M274.66 442.81 C330.33 378.78, 386 314.74, 473.45 214.14 M274.66 442.81 C328.44 380.95, 382.22 319.09, 473.45 214.14 M281.62 440.91 C355.48 355.94, 429.34 270.97, 473.84 219.78 M281.62 440.91 C336.16 378.17, 390.7 315.42, 473.84 219.78 M288.57 439.01 C347.49 371.24, 406.4 303.47, 475.55 223.91 M288.57 439.01 C343.87 375.39, 399.17 311.78, 475.55 223.91 M295.53 437.1 C362.1 360.53, 428.66 283.95, 475.29 230.31 M295.53 437.1 C366.7 355.23, 437.86 273.37, 475.29 230.31 M302.48 435.2 C363.46 365.05, 424.44 294.9, 474.37 237.46 M302.48 435.2 C354.73 375.09, 406.98 314.98, 474.37 237.46 M309.44 433.29 C359.71 375.47, 409.97 317.64, 474.11 243.86 M309.44 433.29 C349.83 386.83, 390.21 340.37, 474.11 243.86 M312.46 435.92 C347.13 396.04, 381.79 356.16, 473.19 251.01 M312.46 435.92 C348.7 394.23, 384.94 352.53, 473.19 251.01 M324.01 428.73 C377.43 367.27, 430.86 305.81, 471.62 258.92 M324.01 428.73 C369.15 376.79, 414.3 324.86, 471.62 258.92 M332.27 425.32 C363.84 389.01, 395.4 352.7, 471.36 265.32 M332.27 425.32 C370.94 380.83, 409.61 336.35, 471.36 265.32 M338.57 424.17 C367.3 391.12, 396.02 358.08, 465.85 277.75 M338.57 424.17 C381.74 374.51, 424.91 324.84, 465.85 277.75 M347.5 420 C374.07 389.43, 400.65 358.86, 462.96 287.17 M347.5 420 C389.86 371.26, 432.23 322.53, 462.96 287.17 M353.79 418.85 C386.24 381.52, 418.69 344.2, 464.01 292.06 M353.79 418.85 C397.25 368.86, 440.71 318.86, 464.01 292.06 M365.34 411.66 C400.44 371.29, 435.54 330.91, 457.85 305.25 M365.34 411.66 C391.7 381.35, 418.05 351.03, 457.85 305.25 M377.55 403.72 C398.37 379.77, 419.18 355.82, 452.34 317.68 M377.55 403.72 C393.08 385.85, 408.62 367.98, 452.34 317.68 M399.59 384.46 C412.36 369.78, 425.12 355.09, 436.99 341.44 M399.59 384.46 C411.27 371.03, 422.94 357.59, 436.99 341.44" stroke="#228be6" stroke-width="0.5" fill="none"></path><path d="M473.4 222 C473.4 226.65, 473.24 231.3, 472.93 235.94 C472.62 240.58, 472.15 245.21, 471.53 249.82 C470.91 254.43, 470.14 259.03, 469.21 263.6 C468.28 268.16, 467.2 272.71, 465.96 277.21 C464.73 281.71, 463.35 286.18, 461.82 290.6 C460.28 295.02, 458.6 299.4, 456.78 303.72 C454.95 308.04, 452.98 312.32, 450.87 316.52 C448.76 320.73, 446.51 324.88, 444.12 328.95 C441.74 333.02, 439.21 337.03, 436.55 340.95 C433.9 344.88, 431.11 348.73, 428.19 352.49 C425.28 356.25, 422.24 359.93, 419.08 363.51 C415.92 367.09, 412.64 370.58, 409.25 373.97 C405.86 377.36, 402.34 380.65, 398.73 383.83 C395.12 387.01, 391.4 390.09, 387.58 393.05 C383.76 396.02, 379.84 398.87, 375.83 401.6 C371.82 404.33, 367.71 406.95, 363.53 409.44 C359.35 411.93, 355.07 414.3, 350.73 416.54 C346.39 418.78, 341.96 420.89, 337.48 422.87 C333 424.85, 328.44 426.7, 323.84 428.41 C319.23 430.12, 314.56 431.7, 309.84 433.13 C305.13 434.57, 300.36 435.87, 295.56 437.03 C290.77 438.18, 285.92 439.2, 281.05 440.07 C276.19 440.94, 271.28 441.67, 266.37 442.25 C261.45 442.83, 256.51 443.27, 251.56 443.56 C246.62 443.85, 241.65 444, 236.7 444 C231.75 444, 226.78 443.85, 221.84 443.56 C216.89 443.27, 211.95 442.83, 207.03 442.25 C202.12 441.67, 197.21 440.94, 192.35 440.07 C187.48 439.2, 182.63 438.18, 177.84 437.03 C173.04 435.87, 168.27 434.57, 163.56 433.13 C158.84 431.7, 154.17 430.12, 149.56 428.41 C144.96 426.7, 140.4 424.85, 135.92 422.87 C131.44 420.89, 127.01 418.78, 122.67 416.54 C118.33 414.3, 114.05 411.93, 109.87 409.44 C105.69 406.95, 101.58 404.33, 97.57 401.6 C93.56 398.87, 89.64 396.02, 85.82 393.05 C82 390.09, 78.28 387.01, 74.67 383.83 C71.06 380.65, 67.54 377.36, 64.15 373.97 C60.76 370.58, 57.48 367.09, 54.32 363.51 C51.16 359.93, 48.12 356.25, 45.21 352.49 C42.29 348.73, 39.5 344.88, 36.85 340.95 C34.19 337.03, 31.66 333.02, 29.28 328.95 C26.89 324.88, 24.64 320.73, 22.53 316.52 C20.42 312.32, 18.45 308.04, 16.62 303.72 C14.8 299.4, 13.12 295.02, 11.58 290.6 C10.05 286.18, 8.67 281.71, 7.44 277.21 C6.2 272.71, 5.12 268.16, 4.19 263.6 C3.26 259.03, 2.49 254.43, 1.87 249.82 C1.25 245.21, 0.78 240.58, 0.47 235.94 C0.16 231.3, 0 226.65, 0 222 C0 217.35, 0.16 212.7, 0.47 208.06 C0.78 203.42, 1.25 198.79, 1.87 194.18 C2.49 189.57, 3.26 184.97, 4.19 180.4 C5.12 175.84, 6.2 171.29, 7.44 166.79 C8.67 162.29, 10.05 157.82, 11.58 153.4 C13.12 148.98, 14.8 144.6, 16.62 140.28 C18.45 135.96, 20.42 131.68, 22.53 127.48 C24.64 123.27, 26.89 119.12, 29.28 115.05 C31.66 110.98, 34.19 106.97, 36.85 103.05 C39.5 99.12, 42.29 95.27, 45.21 91.51 C48.12 87.75, 51.16 84.07, 54.32 80.49 C57.48 76.91, 60.76 73.42, 64.15 70.03 C67.54 66.64, 71.06 63.35, 74.67 60.17 C78.28 56.99, 82 53.91, 85.82 50.95 C89.64 47.98, 93.56 45.13, 97.57 42.4 C101.58 39.67, 105.69 37.05, 109.87 34.56 C114.05 32.07, 118.33 29.7, 122.67 27.46 C127.01 25.22, 131.44 23.11, 135.92 21.13 C140.4 19.15, 144.96 17.3, 149.56 15.59 C154.17 13.88, 158.84 12.3, 163.56 10.87 C168.27 9.43, 173.04 8.13, 177.84 6.97 C182.63 5.82, 187.48 4.8, 192.35 3.93 C197.21 3.06, 202.12 2.33, 207.03 1.75 C211.95 1.17, 216.89 0.73, 221.84 0.44 C226.78 0.15, 231.75 0, 236.7 0 C241.65 0, 246.62 0.15, 251.56 0.44 C256.51 0.73, 261.45 1.17, 266.37 1.75 C271.28 2.33, 276.19 3.06, 281.05 3.93 C285.92 4.8, 290.77 5.82, 295.56 6.97 C300.36 8.13, 305.13 9.43, 309.84 10.87 C314.56 12.3, 319.23 13.88, 323.84 15.59 C328.44 17.3, 333 19.15, 337.48 21.13 C341.96 23.11, 346.39 25.22, 350.73 27.46 C355.07 29.7, 359.35 32.07, 363.53 34.56 C367.71 37.05, 371.82 39.67, 375.83 42.4 C379.84 45.13, 383.76 47.98, 387.58 50.95 C391.4 53.91, 395.12 56.99, 398.73 60.17 C402.34 63.35, 405.86 66.64, 409.25 70.03 C412.64 73.42, 415.92 76.91, 419.08 80.49 C422.24 84.07, 425.28 87.75, 428.19 91.51 C431.11 95.27, 433.9 99.12, 436.55 103.05 C439.21 106.97, 441.74 110.98, 444.12 115.05 C446.51 119.12, 448.76 123.27, 450.87 127.48 C452.98 131.68, 454.95 135.96, 456.78 140.28 C458.6 144.6, 460.28 148.98, 461.82 153.4 C463.35 157.82, 464.73 162.29, 465.96 166.79 C467.2 171.29, 468.28 175.84, 469.21 180.4 C470.14 184.97, 470.91 189.57, 471.53 194.18 C472.15 198.79, 472.62 203.42, 472.93 208.06 C473.24 212.7, 473.32 219.68, 473.4 222 C473.48 224.32, 473.48 219.68, 473.4 222" stroke="#000000" stroke-width="1" fill="none"></path></g><g stroke-opacity="0.8" fill-opacity="0.8" stroke-linecap="round" transform="translate(33.2000732421875 168.39988708496105) rotate(0 88.39999389648438 64)"><path d="M7.86 8.16 C7.86 8.16, 7.86 8.16, 7.86 8.16 M7.86 8.16 C7.86 8.16, 7.86 8.16, 7.86 8.16 M3.66 19.09 C7.01 12.53, 13.83 8.42, 18.1 2.48 M3.66 19.09 C9.51 13.24, 13.75 7.62, 18.1 2.48 M2.75 26.24 C8.4 21.56, 16.35 12.78, 24.4 1.33 M2.75 26.24 C9.93 19.47, 15.87 10.55, 24.4 1.33 M2.48 32.64 C9.15 26.16, 15.95 15.88, 30.7 0.18 M2.48 32.64 C9.26 23.86, 16.21 16.88, 30.7 0.18 M2.88 38.28 C15.1 27.7, 24.45 15.15, 34.37 2.05 M2.88 38.28 C14.43 26.11, 25.24 13.08, 34.37 2.05 M2.62 44.68 C13.7 36.59, 22.16 23.56, 39.36 2.41 M2.62 44.68 C13.35 32.11, 26.66 18.99, 39.36 2.41 M2.36 51.07 C15.9 32.32, 30.73 18.11, 45 2.02 M2.36 51.07 C15.33 34.74, 29.04 18.49, 45 2.02 M2.75 56.72 C19.48 37.56, 38.97 14.34, 49.99 2.38 M2.75 56.72 C15.45 42.64, 28.21 27, 49.99 2.38 M2.49 63.11 C23.88 41.2, 43.64 13.6, 55.63 1.98 M2.49 63.11 C14.68 50.15, 26.7 35.73, 55.63 1.98 M2.88 68.76 C15.83 51.41, 31.31 36.08, 60.62 2.34 M2.88 68.76 C22.64 46.93, 44.03 23.91, 60.62 2.34 M2.62 75.16 C25.01 52.6, 43.97 28.41, 66.26 1.95 M2.62 75.16 C23.78 51.34, 43.29 28.81, 66.26 1.95 M2.36 81.55 C24.25 58.78, 41.23 35.19, 71.25 2.31 M2.36 81.55 C19.59 60.2, 38.05 41.08, 71.25 2.31 M2.76 87.2 C20.82 66.41, 39.84 44.91, 76.89 1.91 M2.76 87.2 C27.81 57.05, 54.82 26.45, 76.89 1.91 M2.49 93.59 C30.38 60.78, 56.63 30.02, 81.88 2.27 M2.49 93.59 C34.19 57.01, 65.02 21.28, 81.88 2.27 M2.89 99.24 C24.57 74.25, 45.57 50.9, 87.52 1.88 M2.89 99.24 C35.4 62.95, 66.82 26.11, 87.52 1.88 M2.63 105.64 C30.02 73.41, 61.5 39.57, 92.51 2.24 M2.63 105.64 C26.05 77.96, 48.94 53.54, 92.51 2.24 M4.33 109.77 C31.22 79.05, 58.74 48.9, 98.15 1.85 M4.33 109.77 C33.54 74.77, 63.92 40.02, 98.15 1.85 M4.73 115.41 C27.93 89.35, 47.68 63.56, 103.14 2.21 M4.73 115.41 C24.43 93.61, 44.35 69.84, 103.14 2.21 M7.09 118.79 C29.43 89.73, 52.56 63.07, 108.78 1.81 M7.09 118.79 C29.33 94.3, 50.03 70.13, 108.78 1.81 M10.11 121.42 C30.99 96.51, 50.9 73.17, 113.77 2.17 M10.11 121.42 C42.72 84.63, 74.39 46.78, 113.77 2.17 M13.13 124.04 C44.3 89.71, 70.45 53.72, 119.41 1.78 M13.13 124.04 C48.53 83.26, 85.33 42.03, 119.41 1.78 M16.8 125.91 C47.03 88.53, 78 52, 124.4 2.14 M16.8 125.91 C51.25 87.37, 85.96 46.85, 124.4 2.14 M20.48 127.78 C56.91 83.25, 92.83 41.14, 130.04 1.74 M20.48 127.78 C53.53 88.9, 88.13 48.23, 130.04 1.74 M24.81 128.89 C53.2 95.24, 80.77 65.07, 135.03 2.1 M24.81 128.89 C56 92.25, 86.9 57.13, 135.03 2.1 M29.8 129.25 C54.23 102.62, 77.94 75.43, 140.67 1.71 M29.8 129.25 C73.67 78.85, 118.32 28.34, 140.67 1.71 M34.13 130.37 C74.74 81.79, 114.29 37.19, 146.31 1.31 M34.13 130.37 C67.63 89.82, 102.66 50.29, 146.31 1.31 M39.77 129.97 C64.71 101.37, 90.88 70.01, 151.3 1.67 M39.77 129.97 C81.23 83.4, 124.03 35.57, 151.3 1.67 M44.76 130.33 C88.31 81.55, 134.52 28.2, 155.63 2.79 M44.76 130.33 C67.69 104.68, 90.23 77.76, 155.63 2.79 M50.4 129.94 C78.89 99.1, 104.49 66.85, 160.62 3.15 M50.4 129.94 C82.78 91.78, 114.49 54.64, 160.62 3.15 M55.39 130.3 C82.8 95.74, 111.94 61.29, 163.64 5.77 M55.39 130.3 C87.98 93.31, 120.19 57.13, 163.64 5.77 M61.03 129.9 C82.55 103.06, 103.48 77.07, 167.31 7.64 M61.03 129.9 C92.65 93.02, 124.79 56.45, 167.31 7.64 M66.02 130.26 C107.92 83.95, 145.22 38.37, 170.99 9.51 M66.02 130.26 C103.21 87.15, 140.49 45.16, 170.99 9.51 M71.66 129.87 C110.23 86.5, 150.51 39.58, 172.69 13.64 M71.66 129.87 C94.04 103.14, 117.4 77.35, 172.69 13.64 M76.65 130.23 C99.77 101.27, 123.13 75.58, 175.06 17.02 M76.65 130.23 C101.13 103.41, 124.75 76.17, 175.06 17.02 M82.29 129.84 C114.63 94.03, 146.81 55.01, 177.42 20.4 M82.29 129.84 C119.85 85.67, 158.12 44.23, 177.42 20.4 M87.28 130.2 C115.63 96.75, 140.4 67.72, 178.47 25.29 M87.28 130.2 C118.29 95.33, 149.57 58.74, 178.47 25.29 M92.92 129.8 C126.62 93.22, 155.5 56.45, 177.55 32.44 M92.92 129.8 C111.01 111.17, 126.88 90.36, 177.55 32.44 M97.91 130.16 C119.64 104.96, 142.72 77.78, 177.29 38.84 M97.91 130.16 C120.55 103.26, 144.82 75.49, 177.29 38.84 M103.55 129.77 C127.37 104.3, 146.58 79.63, 177.69 44.48 M103.55 129.77 C128.24 100.48, 155.03 71.34, 177.69 44.48 M108.54 130.13 C130.37 107.1, 148.37 84.13, 177.43 50.88 M108.54 130.13 C124.74 110.85, 140.12 91.89, 177.43 50.88 M114.18 129.73 C129.57 115.01, 139.79 97.57, 177.16 57.28 M114.18 129.73 C128.08 115.4, 141.9 100.71, 177.16 57.28 M119.17 130.09 C136.12 110.1, 151.72 93.94, 177.56 62.92 M119.17 130.09 C142.34 103.23, 166.85 76.21, 177.56 62.92 M124.81 129.7 C140.96 109.15, 159.36 85.7, 177.3 69.32 M124.81 129.7 C137.93 113.28, 151.86 98.78, 177.3 69.32 M129.8 130.06 C144.44 115.24, 157.14 96.95, 177.04 75.72 M129.8 130.06 C142.6 113.92, 156.82 98.98, 177.04 75.72 M134.79 130.42 C148.22 117.98, 157.71 103.56, 177.43 81.36 M134.79 130.42 C145.83 118.5, 155.71 106.56, 177.43 81.36 M140.43 130.02 C153.44 114.41, 169.3 96.75, 177.17 87.76 M140.43 130.02 C151.46 116.61, 162.79 104.5, 177.17 87.76 M146.07 129.63 C160.2 114.28, 168.62 101.84, 176.91 94.16 M146.07 129.63 C153.48 121.82, 160.63 113.98, 176.91 94.16 M152.37 128.48 C159.08 120.29, 166.43 115.21, 177.3 99.8 M152.37 128.48 C161.08 118.57, 168.13 108.97, 177.3 99.8 M159.33 126.58 C165.33 120.41, 169.26 114.46, 178.35 104.69 M159.33 126.58 C166.15 118.94, 172.31 112.77, 178.35 104.69 M8.18 120.15 C8.18 120.15, 8.18 120.15, 8.18 120.15 M8.18 120.15 C8.18 120.15, 8.18 120.15, 8.18 120.15 M19.1 124.35 C16.11 121.96, 12.12 117.29, 6.27 113.2 M19.1 124.35 C14.15 119.82, 9.49 116.19, 6.27 113.2 M26.26 125.27 C17.96 119.85, 15.06 112.9, 0.6 102.96 M26.26 125.27 C20.68 120.42, 14.91 113.68, 0.6 102.96 M33.41 126.19 C21.25 115.95, 11.93 106.62, 0.96 97.98 M33.41 126.19 C26.37 120.4, 19.56 112.75, 0.96 97.98 M39.81 126.45 C26.25 112.81, 9.66 99.91, 0.56 92.33 M39.81 126.45 C27.98 116.05, 15.02 105.06, 0.56 92.33 M45.45 126.05 C31.06 113.55, 15.72 100.45, 0.92 87.35 M45.45 126.05 C30.88 112.43, 15.01 99.51, 0.92 87.35 M51.85 126.32 C39.91 114.4, 30.07 107.21, 0.53 81.7 M51.85 126.32 C39.86 115.94, 27.14 103.96, 0.53 81.7 M58.24 126.58 C39.53 112.26, 23.75 96.37, 0.89 76.72 M58.24 126.58 C37.82 109.52, 17.47 89.94, 0.89 76.72 M63.89 126.18 C46.24 109.9, 27.32 96.2, 0.49 71.07 M63.89 126.18 C43.23 108.59, 21.95 91.74, 0.49 71.07 M70.29 126.44 C46.91 102.77, 20.88 80.39, 0.85 66.09 M70.29 126.44 C50.98 111.32, 33.48 94.77, 0.85 66.09 M75.93 126.05 C51.41 107.3, 28.71 84.6, 0.46 60.44 M75.93 126.05 C46.79 101.11, 17.3 76.71, 0.46 60.44 M82.33 126.31 C49.59 99.33, 20.62 72.47, 0.82 55.46 M82.33 126.31 C57 103.47, 29.66 80.98, 0.82 55.46 M88.72 126.57 C65.79 107.84, 46.32 91.84, 1.18 50.47 M88.72 126.57 C59.37 101.8, 32.56 75.6, 1.18 50.47 M94.37 126.18 C66.29 103.61, 40.26 77.73, 0.78 44.83 M94.37 126.18 C70.59 105.15, 46.54 84.22, 0.78 44.83 M100.77 126.44 C76.34 104.4, 50.67 82.29, 1.14 39.84 M100.77 126.44 C68.44 98.56, 35.92 70, 1.14 39.84 M106.41 126.04 C67.42 92.51, 29.96 57.78, 0.75 34.2 M106.41 126.04 C74.72 99.32, 41.8 69.94, 0.75 34.2 M112.81 126.31 C82.2 100.72, 50.43 74.25, 1.11 29.21 M112.81 126.31 C81.72 100.31, 51.72 75.04, 1.11 29.21 M119.2 126.57 C72.47 84.07, 25.22 45.81, 0.71 23.57 M119.2 126.57 C72.27 85.86, 26.35 46.52, 0.71 23.57 M124.85 126.17 C82.6 88.53, 40.45 53.42, 1.83 19.24 M124.85 126.17 C88.17 93.2, 48.19 61.59, 1.83 19.24 M131.24 126.43 C99.89 97.9, 70.36 74.75, 3.7 15.56 M131.24 126.43 C92.23 91.95, 51.67 57.38, 3.7 15.56 M136.89 126.04 C108.79 103.53, 81.1 78.06, 6.32 12.54 M136.89 126.04 C96.36 91.07, 58.49 56.89, 6.32 12.54 M144.8 127.61 C100.48 92.05, 56.38 51.35, 8.19 8.87 M144.8 127.61 C94.71 83.26, 43.89 38.19, 8.19 8.87 M150.44 127.22 C103.28 89.46, 58.41 49.07, 10.06 5.19 M150.44 127.22 C97.07 79.84, 42.59 31.76, 10.06 5.19 M155.33 126.17 C106.63 83.16, 56.39 37.97, 14.2 3.48 M155.33 126.17 C105.87 84.28, 55.93 41.4, 14.2 3.48 M160.21 125.12 C119.99 92.33, 82.28 58.41, 18.33 1.78 M160.21 125.12 C107.71 77.19, 52.42 29.93, 18.33 1.78 M163.59 122.75 C110.7 77.15, 60.32 32.17, 23.22 0.73 M163.59 122.75 C121.22 85.28, 77.6 49.86, 23.22 0.73 M166.97 120.39 C119.88 80.77, 73.8 41.78, 28.86 0.33 M166.97 120.39 C138.91 96.68, 111.07 71.01, 28.86 0.33 M170.35 118.03 C128.32 82.39, 87.12 46.46, 32.99 -1.37 M170.35 118.03 C142.38 94.02, 114.04 71.37, 32.99 -1.37 M172.22 114.35 C130.78 79.11, 92.13 45.07, 39.39 -1.11 M172.22 114.35 C140.64 85.16, 108.08 56.06, 39.39 -1.11 M174.85 111.34 C145.67 87.74, 119.4 60.87, 45.04 -1.51 M174.85 111.34 C137.5 80.58, 101.56 49.57, 45.04 -1.51 M176.72 107.66 C143.59 79.5, 105.08 49.05, 51.43 -1.25 M176.72 107.66 C151.08 83.33, 123.92 61.53, 51.43 -1.25 M177.08 102.67 C143.72 75.35, 112.49 48.51, 57.83 -0.98 M177.08 102.67 C143.42 75.35, 110.41 46.62, 57.83 -0.98 M177.44 97.69 C144.7 66.45, 109.34 38.53, 63.47 -1.38 M177.44 97.69 C148.59 73.39, 119.84 48.52, 63.47 -1.38 M177.04 92.04 C142.1 63.9, 107.36 32.9, 69.87 -1.12 M177.04 92.04 C154.32 72.72, 132.66 54.59, 69.87 -1.12 M177.4 87.06 C148.93 60.35, 119.01 34, 75.51 -1.51 M177.4 87.06 C151.34 64.93, 127.3 42.89, 75.51 -1.51 M177.01 81.41 C156.3 65.76, 139.82 49.86, 81.91 -1.25 M177.01 81.41 C143.02 51.23, 108.12 20.3, 81.91 -1.25 M177.37 76.43 C151.44 50.96, 124.25 26.62, 88.31 -0.99 M177.37 76.43 C145.91 49.03, 116.62 22.57, 88.31 -0.99 M176.97 70.78 C145.51 40.54, 112.49 14.52, 93.95 -1.38 M176.97 70.78 C147.43 45.5, 116 19.29, 93.95 -1.38 M177.33 65.8 C152.51 44.73, 128.89 23.7, 100.35 -1.12 M177.33 65.8 C148.65 40.23, 120.87 15.89, 100.35 -1.12 M177.69 60.81 C157.28 43.56, 133.55 21.71, 105.99 -1.52 M177.69 60.81 C157.16 42.15, 138.82 25.74, 105.99 -1.52 M177.3 55.17 C152.53 34.09, 132.27 15.09, 112.39 -1.26 M177.3 55.17 C160.02 39.72, 142.22 24.51, 112.39 -1.26 M177.66 50.18 C163.56 34.95, 146.55 20.67, 118.79 -0.99 M177.66 50.18 C160.82 35.91, 145.7 21.67, 118.79 -0.99 M177.26 44.54 C165 33.47, 149.34 20.61, 124.43 -1.39 M177.26 44.54 C165.88 33.85, 153.25 22.74, 124.43 -1.39 M177.62 39.55 C161.34 26.83, 144.06 12.9, 130.83 -1.13 M177.62 39.55 C159.71 22.7, 140.58 6.81, 130.83 -1.13 M177.23 33.91 C167.62 23, 155.92 14.64, 136.47 -1.52 M177.23 33.91 C161.23 21.02, 146.49 5.81, 136.47 -1.52 M178.34 29.57 C170.54 20.61, 158.22 12.19, 142.87 -1.26 M178.34 29.57 C171.13 23.41, 162.61 16.26, 142.87 -1.26 M177.95 23.93 C170.34 17.44, 163.86 10.33, 147.01 -2.97 M177.95 23.93 C168.7 16.11, 161 7.91, 147.01 -2.97 M176.04 16.98 C170.36 10.78, 167.01 6.81, 158.69 1.89 M176.04 16.98 C169.67 11.27, 163.71 6.83, 158.69 1.89" stroke="#fa5252" stroke-width="0.5" fill="none"></path><path d="M32 0 M32 0 C62.52 -0.48, 90.71 -2.01, 144.8 0 M32 0 C56.85 -0.5, 81.71 -1.17, 144.8 0 M144.8 0 C164.44 -1.36, 178.54 10.54, 176.8 32 M144.8 0 C163.85 1.49, 175.05 10.46, 176.8 32 M176.8 32 C177.82 53.08, 178.19 77.84, 176.8 96 M176.8 32 C177.6 46.1, 176.02 62.5, 176.8 96 M176.8 96 C175.3 118.72, 166.12 126.57, 144.8 128 M176.8 96 C176.76 115.85, 166.76 126.5, 144.8 128 M144.8 128 C105.58 129.62, 68.2 128.25, 32 128 M144.8 128 C121.09 129.73, 96.87 129.82, 32 128 M32 128 C12.23 127.82, 1.38 117.81, 0 96 M32 128 C12.49 129, -1.62 115.39, 0 96 M0 96 C-1.25 74.66, -1.64 55.56, 0 32 M0 96 C0.81 70.92, 1 47.2, 0 32 M0 32 C-1.41 11.11, 11.1 1.43, 32 0 M0 32 C-0.77 8.83, 12.38 1.89, 32 0" stroke="#000000" stroke-width="1" fill="none"></path></g><g stroke-opacity="0.5" fill-opacity="0.5" transform="translate(38.2000732421875 179.89988708496105) rotate(0 83 52.5)"><text x="83" y="25" font-family="Virgil, Segoe UI Emoji" font-size="28px" fill="#000000" text-anchor="middle" style="white-space: pre;" direction="ltr">create </text><text x="83" y="60" font-family="Virgil, Segoe UI Emoji" font-size="28px" fill="#000000" text-anchor="middle" style="white-space: pre;" direction="ltr">value for </text><text x="83" y="95" font-family="Virgil, Segoe UI Emoji" font-size="28px" fill="#000000" text-anchor="middle" style="white-space: pre;" direction="ltr">the users</text></g><g stroke-opacity="0.8" fill-opacity="0.8" stroke-linecap="round" transform="translate(277.5999450683594 171.19990539550793) rotate(0 88.39999389648438 64)"><path d="M7.86 8.16 C7.86 8.16, 7.86 8.16, 7.86 8.16 M7.86 8.16 C7.86 8.16, 7.86 8.16, 7.86 8.16 M3.66 19.09 C7.15 15.82, 13.72 9.15, 18.1 2.48 M3.66 19.09 C7.77 14.38, 11.17 10.05, 18.1 2.48 M2.75 26.24 C5.75 22.47, 13.82 15.21, 24.4 1.33 M2.75 26.24 C9.2 18.98, 15.02 11.36, 24.4 1.33 M2.48 32.64 C11.09 22.62, 17.7 18.13, 30.7 0.18 M2.48 32.64 C10.34 23.76, 17.62 15.71, 30.7 0.18 M2.88 38.28 C12.27 28.08, 18.78 19.57, 34.37 2.05 M2.88 38.28 C12.98 25.85, 25.11 12.47, 34.37 2.05 M2.62 44.68 C13.26 28.91, 27.73 15.99, 39.36 2.41 M2.62 44.68 C10.97 35.11, 19.5 25.76, 39.36 2.41 M2.36 51.07 C16.05 37.66, 27.27 21.76, 45 2.02 M2.36 51.07 C17.13 34.84, 30.79 18.75, 45 2.02 M2.75 56.72 C12.72 44.75, 25.1 33.71, 49.99 2.38 M2.75 56.72 C14.27 44.93, 24.42 32.31, 49.99 2.38 M2.49 63.11 C23.33 39.22, 42.57 18.89, 55.63 1.98 M2.49 63.11 C18.48 43.86, 35.93 25.92, 55.63 1.98 M2.88 68.76 C24.66 45.87, 45.29 17.96, 60.62 2.34 M2.88 68.76 C25.39 43.26, 47.49 17.2, 60.62 2.34 M2.62 75.16 C21.75 52.61, 41.79 32.58, 66.26 1.95 M2.62 75.16 C21.27 54.48, 38.44 32.92, 66.26 1.95 M2.36 81.55 C21.97 59.04, 41.45 37.11, 71.25 2.31 M2.36 81.55 C25.3 55.4, 48.76 28.52, 71.25 2.31 M2.76 87.2 C20.68 64.03, 43.15 45.17, 76.89 1.91 M2.76 87.2 C28 57.37, 54.21 28.96, 76.89 1.91 M2.49 93.59 C28.98 61.37, 58.81 29.9, 81.88 2.27 M2.49 93.59 C23 70.35, 41.16 47.48, 81.88 2.27 M2.89 99.24 C25.39 75.15, 45.5 46.14, 87.52 1.88 M2.89 99.24 C30.32 68.43, 58.32 37.39, 87.52 1.88 M2.63 105.64 C25.16 79.71, 47.03 54.55, 92.51 2.24 M2.63 105.64 C39.21 64.72, 74.97 22.59, 92.51 2.24 M4.33 109.77 C27.3 80.69, 52.42 56.94, 98.15 1.85 M4.33 109.77 C34.4 74.7, 65.89 39.95, 98.15 1.85 M4.73 115.41 C40.61 74.34, 73.15 35.73, 103.14 2.21 M4.73 115.41 C41.09 73.63, 76.35 32.21, 103.14 2.21 M7.09 118.79 C32.86 89.89, 53 66.07, 108.78 1.81 M7.09 118.79 C29.29 94.45, 50.86 69.35, 108.78 1.81 M10.11 121.42 C38.42 87.12, 70.19 52.18, 113.77 2.17 M10.11 121.42 C35.18 92.17, 61.34 62.15, 113.77 2.17 M13.13 124.04 C46.81 86.19, 79.96 49.45, 119.41 1.78 M13.13 124.04 C49.91 81.9, 85.33 42.29, 119.41 1.78 M16.8 125.91 C42.09 93.98, 69.39 63.99, 124.4 2.14 M16.8 125.91 C44.58 93.74, 71.54 62.91, 124.4 2.14 M20.48 127.78 C48.64 96.98, 76.84 63.7, 130.04 1.74 M20.48 127.78 C58.9 84.73, 96.78 39.64, 130.04 1.74 M24.81 128.89 C49.59 101.34, 74.23 69.55, 135.03 2.1 M24.81 128.89 C57.72 89.53, 92.31 50.84, 135.03 2.1 M29.8 129.25 C69.45 82.74, 110.03 35.57, 140.67 1.71 M29.8 129.25 C56.08 99.13, 83.44 68.74, 140.67 1.71 M34.13 130.37 C75.14 82.64, 114.55 38.59, 146.31 1.31 M34.13 130.37 C63.19 99.21, 90.17 67.39, 146.31 1.31 M39.77 129.97 C82.73 77.96, 125.2 29.28, 151.3 1.67 M39.77 129.97 C74.37 92.04, 106.88 53.95, 151.3 1.67 M44.76 130.33 C71.99 97.55, 100.74 66.37, 155.63 2.79 M44.76 130.33 C67.4 101.73, 91.15 74.59, 155.63 2.79 M50.4 129.94 C92.11 84.35, 132.7 33.07, 160.62 3.15 M50.4 129.94 C87.43 89.98, 122.67 48.21, 160.62 3.15 M55.39 130.3 C96.17 83.23, 137.97 34.6, 163.64 5.77 M55.39 130.3 C85.52 95.71, 115.55 61.82, 163.64 5.77 M61.03 129.9 C92.31 95.36, 118.42 64.22, 167.31 7.64 M61.03 129.9 C85.63 101.19, 112.05 71.3, 167.31 7.64 M66.02 130.26 C103.82 86.42, 142.3 43.03, 170.99 9.51 M66.02 130.26 C106.97 84.08, 147.28 37.07, 170.99 9.51 M71.66 129.87 C103.18 95.32, 132.85 58.69, 172.69 13.64 M71.66 129.87 C98.54 99.62, 125.8 69.16, 172.69 13.64 M76.65 130.23 C98.33 106.91, 123.03 78.3, 175.06 17.02 M76.65 130.23 C101.2 102.05, 124.52 72.85, 175.06 17.02 M82.29 129.84 C115.44 91.02, 150.42 51.1, 177.42 20.4 M82.29 129.84 C114.63 92.62, 147.2 54.43, 177.42 20.4 M87.28 130.2 C118.34 95.27, 152.43 58, 178.47 25.29 M87.28 130.2 C110.13 103.96, 133.45 77.87, 178.47 25.29 M92.92 129.8 C117.12 105.3, 137.42 78.98, 177.55 32.44 M92.92 129.8 C120.62 96.94, 149.58 64.57, 177.55 32.44 M97.91 130.16 C127.27 98.4, 158.86 63.62, 177.29 38.84 M97.91 130.16 C122.07 102.59, 146.64 73.45, 177.29 38.84 M103.55 129.77 C128.24 105.73, 147.4 78.22, 177.69 44.48 M103.55 129.77 C119.95 113.56, 134.03 95.66, 177.69 44.48 M108.54 130.13 C124.76 111.98, 140.09 94.68, 177.43 50.88 M108.54 130.13 C124.72 110.95, 141.43 93.81, 177.43 50.88 M114.18 129.73 C128.36 111.1, 143.26 93.04, 177.16 57.28 M114.18 129.73 C128.44 113.05, 141.98 98.44, 177.16 57.28 M119.17 130.09 C136.34 108.4, 156.89 85.94, 177.56 62.92 M119.17 130.09 C141.12 105.2, 162.1 79.41, 177.56 62.92 M124.81 129.7 C142.37 110.36, 161.01 88.68, 177.3 69.32 M124.81 129.7 C145.25 107.05, 163.56 85.33, 177.3 69.32 M129.8 130.06 C147.89 107.9, 166.86 87.21, 177.04 75.72 M129.8 130.06 C147.95 110.17, 163.68 91.24, 177.04 75.72 M134.79 130.42 C150.68 113.58, 163.26 97.38, 177.43 81.36 M134.79 130.42 C151.01 112.26, 166.61 93.36, 177.43 81.36 M140.43 130.02 C154.27 115.57, 168.43 97.79, 177.17 87.76 M140.43 130.02 C154.58 113.52, 166.61 99.29, 177.17 87.76 M146.07 129.63 C157.57 119.07, 167.09 106.19, 176.91 94.16 M146.07 129.63 C153.45 120.84, 161.37 112.51, 176.91 94.16 M152.37 128.48 C158.49 122.65, 164.51 115.3, 177.3 99.8 M152.37 128.48 C158.18 121.37, 165.68 113.7, 177.3 99.8 M159.33 126.58 C166.37 120.43, 174.45 111.41, 178.35 104.69 M159.33 126.58 C163.89 120.76, 171.08 114.04, 178.35 104.69 M8.18 120.15 C8.18 120.15, 8.18 120.15, 8.18 120.15 M8.18 120.15 C8.18 120.15, 8.18 120.15, 8.18 120.15 M19.1 124.35 C13.59 120.52, 9.47 116.02, 6.27 113.2 M19.1 124.35 C13.97 119.9, 9.65 114.85, 6.27 113.2 M26.26 125.27 C17.68 118.03, 11.28 112.86, 0.6 102.96 M26.26 125.27 C16.1 117.23, 6.7 109.34, 0.6 102.96 M33.41 126.19 C25.3 119.99, 19.46 111.08, 0.96 97.98 M33.41 126.19 C24.95 119.2, 16.9 111.02, 0.96 97.98 M39.81 126.45 C24.31 113.89, 6.7 101.38, 0.56 92.33 M39.81 126.45 C28.17 116.32, 17.97 106.76, 0.56 92.33 M45.45 126.05 C31.26 113.53, 17.04 100.55, 0.92 87.35 M45.45 126.05 C27.24 112.41, 10.56 96.39, 0.92 87.35 M51.85 126.32 C36.11 111.08, 19.66 100.14, 0.53 81.7 M51.85 126.32 C35.95 112.84, 21.35 99.04, 0.53 81.7 M58.24 126.58 C39.37 112.96, 25.38 96.44, 0.89 76.72 M58.24 126.58 C39.27 109.34, 18.89 93.7, 0.89 76.72 M63.89 126.18 C41.17 104.55, 17.69 87.65, 0.49 71.07 M63.89 126.18 C48.33 112.27, 32.07 98.07, 0.49 71.07 M70.29 126.44 C53.72 112.61, 33.17 96.57, 0.85 66.09 M70.29 126.44 C56.4 113.58, 41.87 101.99, 0.85 66.09 M75.93 126.05 C48.88 104.13, 21.35 77.97, 0.46 60.44 M75.93 126.05 C55.99 106.79, 34.13 89.37, 0.46 60.44 M82.33 126.31 C58.02 106.86, 33.19 87.25, 0.82 55.46 M82.33 126.31 C49.73 97.9, 16.4 68.66, 0.82 55.46 M88.72 126.57 C69.96 108.08, 50.29 91.08, 1.18 50.47 M88.72 126.57 C66.26 107.49, 44.26 89.08, 1.18 50.47 M94.37 126.18 C63.7 99.79, 34.26 75.82, 0.78 44.83 M94.37 126.18 C72 106.97, 49.65 86.81, 0.78 44.83 M100.77 126.44 C69.85 100.12, 39.42 74.66, 1.14 39.84 M100.77 126.44 C67.6 96.36, 33.93 69.04, 1.14 39.84 M106.41 126.04 C66.16 91.75, 27.06 56.42, 0.75 34.2 M106.41 126.04 C73.26 95.98, 36.41 66.23, 0.75 34.2 M112.81 126.31 C80.91 100.49, 51.76 74.1, 1.11 29.21 M112.81 126.31 C88.77 105.43, 63.1 83.28, 1.11 29.21 M119.2 126.57 C73.18 86.8, 30.31 49.17, 0.71 23.57 M119.2 126.57 C91.12 101.51, 64.57 76.89, 0.71 23.57 M124.85 126.17 C86.62 92.71, 49.35 59.73, 1.83 19.24 M124.85 126.17 C87.68 93.29, 50.11 61.15, 1.83 19.24 M131.24 126.43 C90.9 91.78, 51.88 56.35, 3.7 15.56 M131.24 126.43 C104.76 102.75, 78.48 79.26, 3.7 15.56 M136.89 126.04 C107.03 98.1, 78.02 74.3, 6.32 12.54 M136.89 126.04 C99.88 91.71, 63.78 60.23, 6.32 12.54 M144.8 127.61 C106.73 92.93, 73.37 62.19, 8.19 8.87 M144.8 127.61 C116.5 103.15, 88.26 79.25, 8.19 8.87 M150.44 127.22 C99.62 80.93, 43.84 34.84, 10.06 5.19 M150.44 127.22 C96.54 77.32, 41.11 29.79, 10.06 5.19 M155.33 126.17 C123.68 95.95, 91.68 67.99, 14.2 3.48 M155.33 126.17 C113.37 90.52, 70.23 54.22, 14.2 3.48 M160.21 125.12 C107.74 82.02, 54.47 33.61, 18.33 1.78 M160.21 125.12 C108 80.02, 54.36 35.32, 18.33 1.78 M163.59 122.75 C126.43 89.25, 92.21 62.34, 23.22 0.73 M163.59 122.75 C121.23 88.61, 79.99 50.7, 23.22 0.73 M166.97 120.39 C121.57 81.12, 79.25 45.7, 28.86 0.33 M166.97 120.39 C132.58 90.81, 98.77 60.54, 28.86 0.33 M170.35 118.03 C130.57 84.39, 94.8 50.45, 32.99 -1.37 M170.35 118.03 C130.32 81.89, 90.79 46.96, 32.99 -1.37 M172.22 114.35 C143.62 90.53, 117.21 66.34, 39.39 -1.11 M172.22 114.35 C145.12 90.24, 118.98 67.86, 39.39 -1.11 M174.85 111.34 C128.16 72.21, 77.61 28.01, 45.04 -1.51 M174.85 111.34 C134.05 76.83, 94.64 41.19, 45.04 -1.51 M176.72 107.66 C137.57 71.6, 93.35 33.25, 51.43 -1.25 M176.72 107.66 C140.66 74.89, 104.07 43.84, 51.43 -1.25 M177.08 102.67 C152.41 80.49, 126.02 56.75, 57.83 -0.98 M177.08 102.67 C145.67 75.98, 115.43 50.27, 57.83 -0.98 M177.44 97.69 C149.62 74.79, 123.84 49.77, 63.47 -1.38 M177.44 97.69 C141.32 67.94, 107.39 37.91, 63.47 -1.38 M177.04 92.04 C148.1 66.92, 118.29 40.92, 69.87 -1.12 M177.04 92.04 C134.57 53.44, 92.31 16.71, 69.87 -1.12 M177.4 87.06 C155.02 70.29, 135.9 52.73, 75.51 -1.51 M177.4 87.06 C141.19 54.84, 106.04 25.13, 75.51 -1.51 M177.01 81.41 C139.87 48.14, 100.63 14.94, 81.91 -1.25 M177.01 81.41 C151.82 58.23, 125.15 36.77, 81.91 -1.25 M177.37 76.43 C144.6 48.11, 111.18 18.67, 88.31 -0.99 M177.37 76.43 C158.57 59.18, 140.23 43.55, 88.31 -0.99 M176.97 70.78 C144.28 42.12, 112.28 15, 93.95 -1.38 M176.97 70.78 C149.03 46.12, 119.44 21.29, 93.95 -1.38 M177.33 65.8 C151.82 41.99, 124.16 20.02, 100.35 -1.12 M177.33 65.8 C159.02 48.84, 140.14 34.66, 100.35 -1.12 M177.69 60.81 C152.54 37.59, 128.18 17.11, 105.99 -1.52 M177.69 60.81 C163.04 46.95, 147.2 33.33, 105.99 -1.52 M177.3 55.17 C160.03 41.62, 142.19 26.5, 112.39 -1.26 M177.3 55.17 C162.05 39.8, 145.89 27.76, 112.39 -1.26 M177.66 50.18 C166.13 39.15, 152.8 26.99, 118.79 -0.99 M177.66 50.18 C156.73 33.68, 137.05 15.21, 118.79 -0.99 M177.26 44.54 C159.04 28.09, 140.04 12.1, 124.43 -1.39 M177.26 44.54 C156.21 27.6, 135.91 8.19, 124.43 -1.39 M177.62 39.55 C165.75 31.13, 157.02 19.43, 130.83 -1.13 M177.62 39.55 C161.08 25.14, 143.98 10.99, 130.83 -1.13 M177.23 33.91 C168.39 25.69, 157 16.82, 136.47 -1.52 M177.23 33.91 C163.97 22.38, 149.51 11.36, 136.47 -1.52 M178.34 29.57 C166.84 18.83, 154.14 6.8, 142.87 -1.26 M178.34 29.57 C166.69 18.73, 154.05 7.52, 142.87 -1.26 M177.95 23.93 C167.27 14.38, 152.66 1.49, 147.01 -2.97 M177.95 23.93 C171.2 16.72, 163.68 11.56, 147.01 -2.97 M176.04 16.98 C169.72 9.82, 160.74 5.85, 158.69 1.89 M176.04 16.98 C169.79 10.49, 163.42 5.4, 158.69 1.89" stroke="#40c057" stroke-width="0.5" fill="none"></path><path d="M32 0 M32 0 C59.48 -0.75, 86.58 -0.19, 144.8 0 M32 0 C76.45 -0.51, 122.12 -1.42, 144.8 0 M144.8 0 C165.6 -1.57, 177.03 10.68, 176.8 32 M144.8 0 C165.21 -1.99, 175.09 12.06, 176.8 32 M176.8 32 C178.43 50.17, 177.83 65.33, 176.8 96 M176.8 32 C176.48 51.98, 176.74 72.51, 176.8 96 M176.8 96 C176.22 117.77, 164.55 127.59, 144.8 128 M176.8 96 C175.45 119.55, 168.1 130.04, 144.8 128 M144.8 128 C107.6 129.37, 72.34 127.7, 32 128 M144.8 128 C120.69 129.37, 96.41 129.64, 32 128 M32 128 C12.37 126.33, -0.05 118.95, 0 96 M32 128 C12.7 129.58, -0.34 119.32, 0 96 M0 96 C1.3 74.76, 0.38 55.53, 0 32 M0 96 C0.46 81.82, 0.91 66.78, 0 32 M0 32 C-0.03 12.66, 9.45 -1.11, 32 0 M0 32 C-0.19 9.33, 10.22 -0.91, 32 0" stroke="#000000" stroke-width="1" fill="none"></path></g><g stroke-opacity="0.5" fill-opacity="0.5" transform="translate(282.5999450683594 182.69990539550793) rotate(0 83 52.5)"><text x="83" y="25" font-family="Virgil, Segoe UI Emoji" font-size="28px" fill="#000000" text-anchor="middle" style="white-space: pre;" direction="ltr">capture </text><text x="83" y="60" font-family="Virgil, Segoe UI Emoji" font-size="28px" fill="#000000" text-anchor="middle" style="white-space: pre;" direction="ltr">value for </text><text x="83" y="95" font-family="Virgil, Segoe UI Emoji" font-size="28px" fill="#000000" text-anchor="middle" style="white-space: pre;" direction="ltr">business</text></g><g stroke-linecap="round"><g stroke-opacity="0.8" fill-opacity="0.8" transform="translate(211.5999755859375 206.7998504638673) rotate(0 33.16551250555085 0.6049880402166821)"><path d="M1.18 1.17 C12.31 1.04, 55.37 0.22, 65.99 -0.14 M0.34 0.73 C11.48 0.74, 55.02 1.47, 65.66 1.33" stroke="#000000" stroke-width="1" fill="none"></path></g><g stroke-opacity="0.8" fill-opacity="0.8" transform="translate(211.5999755859375 206.7998504638673) rotate(0 33.16551250555085 0.6049880402166821)"><path d="M39.38 13.46 C43.85 8.97, 49.19 4.72, 67.25 -0.53 M38.34 11.34 C47.78 8.32, 57.87 4.34, 66.54 1.11" stroke="#000000" stroke-width="1" fill="none"></path></g><g stroke-opacity="0.8" fill-opacity="0.8" transform="translate(211.5999755859375 206.7998504638673) rotate(0 33.16551250555085 0.6049880402166821)"><path d="M39.46 -7.06 C44.02 -6.68, 49.34 -6.06, 67.25 -0.53 M38.42 -9.18 C47.9 -4.66, 57.96 -1.1, 66.54 1.11" stroke="#000000" stroke-width="1" fill="none"></path></g></g><g stroke-opacity="0.4" fill-opacity="0.4" transform="translate(15 71.00000000000006) rotate(0 231.5 161.00000000000003)"><text x="231.5" y="32" font-family="Virgil, Segoe UI Emoji" font-size="36px" fill="#000000" text-anchor="middle" style="white-space: pre;" direction="ltr">using</text><text x="231.5" y="78" font-family="Virgil, Segoe UI Emoji" font-size="36px" fill="#000000" text-anchor="middle" style="white-space: pre;" direction="ltr"></text><text x="231.5" y="124" font-family="Virgil, Segoe UI Emoji" font-size="36px" fill="#000000" text-anchor="middle" style="white-space: pre;" direction="ltr"></text><text x="231.5" y="170" font-family="Virgil, Segoe UI Emoji" font-size="36px" fill="#000000" text-anchor="middle" style="white-space: pre;" direction="ltr"></text><text x="231.5" y="216" font-family="Virgil, Segoe UI Emoji" font-size="36px" fill="#000000" text-anchor="middle" style="white-space: pre;" direction="ltr"></text><text x="231.5" y="262" font-family="Virgil, Segoe UI Emoji" font-size="36px" fill="#000000" text-anchor="middle" style="white-space: pre;" direction="ltr"></text><text x="231.5" y="308" font-family="Virgil, Segoe UI Emoji" font-size="36px" fill="#000000" text-anchor="middle" style="white-space: pre;" direction="ltr">data</text></g><g stroke-linecap="round"><g stroke-opacity="0.8" fill-opacity="0.8" transform="translate(276.4000244140625 251.5998992919923) rotate(0 -32.43580323755742 -0.23557190552818952)"><path d="M-0.12 0.43 C-10.71 0.62, -54.3 0.53, -64.75 0.65 M-1.64 -0.39 C-11.75 -0.51, -52.22 -1.1, -62.44 -1.13" stroke="#000000" stroke-width="1" fill="none"></path></g><g stroke-opacity="0.8" fill-opacity="0.8" transform="translate(276.4000244140625 251.5998992919923) rotate(0 -32.43580323755742 -0.23557190552818952)"><path d="M-33.43 -12.37 C-38.81 -7.16, -43.66 -5.13, -62.67 -0.95 M-35.08 -10.44 C-40.16 -9.37, -45.82 -6.62, -62.44 -0.74" stroke="#000000" stroke-width="1" fill="none"></path></g><g stroke-opacity="0.8" fill-opacity="0.8" transform="translate(276.4000244140625 251.5998992919923) rotate(0 -32.43580323755742 -0.23557190552818952)"><path d="M-33.63 8.15 C-38.88 9.22, -43.69 7.11, -62.67 -0.95 M-35.28 10.08 C-40.14 6.62, -45.75 4.84, -62.44 -0.74" stroke="#000000" stroke-width="1" fill="none"></path></g></g></svg>