<svg width="111" height="32" viewBox="0 0 111 32" fill="none" xmlns="http://www.w3.org/2000/svg">
<path d="M31.1024 17.9799C31.1024 17.9799 29.4337 22.1047 27.3538 21.9142C26.2217 21.8109 25.8637 20.8819 25.8651 20.3138L25.8909 6.28516H20.2676V20.6593C20.2627 23.003 21.9664 25.147 24.9822 25.2845C27.8207 25.4144 31.0976 21.226 31.0976 21.226L31.092 24.8344L36.6888 24.7883L36.723 6.28795H31.1283L31.1024 17.9799Z" fill="#FC644F"/>
<path d="M49.8887 6.36877C47.829 6.36528 46.0158 7.39195 44.77 8.95116L44.7497 6.28711H39.1773L39.1348 31.9909L44.7323 32L44.7441 22.6957C45.7715 24.1893 47.6874 25.3291 49.8538 25.3333C53.7253 25.3402 57.1061 21.4045 57.1166 15.8643C57.127 10.324 53.7601 6.37575 49.8887 6.36877ZM48.1187 22.9016C46.7333 22.9016 45.2801 21.2412 44.7497 19.8907L44.7644 11.7946C45.2997 10.4461 46.7584 8.79342 48.1431 8.79342C50.1322 8.79691 51.0521 11.1287 51.0431 15.8524C51.034 20.5761 50.1071 22.9051 48.1187 22.9016Z" fill="#FC644F"/>
<path d="M59.1206 24.905H64.7125L64.7474 6.28809H59.1206V24.905Z" fill="#FC644F"/>
<path d="M86.0254 6.32715C80.3427 6.32715 76.8188 10.6781 76.8125 15.7926C76.8021 21.3329 80.7426 25.0648 85.638 25.2916C87.8784 25.3949 90.9954 24.0004 92.4778 22.4782L91.5698 21.1654C88.6133 23.7192 87.2984 23.41 87.2984 23.41C83.6049 23.4037 82.9467 20.5247 82.9565 15.5881L93.8235 15.6077C93.5373 9.72892 90.1188 6.32645 86.0254 6.32715ZM88.3893 13.8747L82.9579 13.8649C82.9635 10.9524 83.7836 7.28612 86.0212 7.28612C87.743 7.28612 88.5742 11.4905 88.3893 13.8747Z" fill="#FC644F"/>
<path d="M77.3712 6.19493L74.2884 6.18656L74.2982 0L66.2202 7.94677L68.5995 7.95235L68.6162 24.8802H74.241L74.2842 7.91257L77.3671 7.92094L77.3712 6.19493Z" fill="#FC644F"/>
<path d="M105.725 6.13141C103.99 6.63393 102.33 8.01586 101.193 9.41174L101.199 6.21238H95.5723V24.8293H98.5413L101.169 24.8342L101.187 12.7996V12.2412C101.946 10.9598 103.273 9.13536 104.632 9.25959C105.539 9.34335 106.293 10.3393 106.296 11.2571L110.2 7.43238C110.275 7.357 108.042 5.46139 105.725 6.13141Z" fill="#FC644F"/>
<path d="M11.6926 5.24796C11.6822 8.46687 11.6724 20.4631 11.6619 23.6841C11.6528 26.6385 10.3979 28.7093 7.53359 28.6932C4.03201 28.6716 2.89297 26.2002 2.34648 23.3519C2.88236 23.7499 3.49032 24.0402 4.1367 24.2069C4.38765 24.2685 4.64933 24.2722 4.90193 24.2177C5.15453 24.1633 5.39142 24.052 5.59465 23.8924C5.79789 23.7328 5.96214 23.5291 6.07497 23.2966C6.1878 23.0641 6.24624 22.809 6.24588 22.5506V17.0788H0V20.6599L0.0125624 20.6801C0.309188 30.1638 6.25216 31.8898 9.19469 31.968C9.87646 31.9872 10.5583 31.9313 11.2278 31.8012C13.1388 31.4264 14.8773 30.3913 16.0366 28.8161C17.5511 26.7557 17.7675 24.2906 17.7731 21.8136C17.7787 18.7482 17.785 9.46004 17.7912 6.39607L17.8038 0.0126953H11.7087C11.704 1.75755 11.6987 3.50264 11.6926 5.24796Z" fill="#FC644F"/>
</svg>
